<svg viewBox="0 0 100 130" enable-background="new 0 0 100 130">
	<path d="M62.1,95.3c1.4-9.3,2.2-18.1-3.5-27.3c-0.7,7.2-0.1,13.8-6.2,17.8c-4.7-5-4.7-6.1,0.6-32.7c-8.2,9.9-11,20.3-9.2,32
		c-6.6-1.3-8.6-4.4-9.5-15.1c-4.8,8.3-1.9,16.1,0.6,24.2C15.1,82.9,6.1,62.5,24,44.1c7.2-7.5,14.5-15,21.1-23
		C49.8,15.5,52.3,8.7,49,0c10.2,6.5,17.7,14.2,23,23.8C82.1,42,85.1,61.1,77.6,81C75,87.9,70.5,93.3,62.1,95.3z"/>
	<path d="M99.9,121c0.2,4.1-3.1,6.9-7.1,5.9c-29.6-7.2-59.2-14.4-88.9-21.5c-3.1-0.7-4.5-1.8-3.7-5.2c0.8-3.4,2.4-4.9,6.2-4.1
		c28.3,6.1,56.7,12,85,17.9C95.7,114.9,99.7,115.4,99.9,121z"/>
	<path d="M45.9,120.5c-13.8,3.4-27,6.7-40.3,9.5c-1.4,0.3-4.5-2.7-5.1-4.8c-1-3.2,0.3-6.3,4.1-7.6C18.4,112.9,31.9,115,45.9,120.5z"
		/>
	<path d="M68,104.6c8.3-1.8,16.6-3.4,24.9-5.4c4-0.9,6.1,0.3,6.9,4.3c0.9,4.1-2,4-4.6,5c-7.4,2.7-14-0.9-21-1.7
		c-2.1-0.2-4.2-0.9-6.2-1.4C68,105.2,68,104.9,68,104.6z"/>
</svg>
